<svg width="318" height="318" viewBox="91 91 136 136" fill="none" xmlns="http://www.w3.org/2000/svg">
<path d="M91 126.789C91 107.023 107.023 91 126.789 91L191.211 91C210.977 91 227 107.023 227 126.789L227 191.211C227 210.976 210.977 227 191.211 227L126.789 227C107.023 227 91 210.976 91 191.211L91 126.789Z" fill="white"/>
<path d="M130.618 127.382V122.818H152.12V127.382H144.105V149H138.633V127.382H130.618ZM154.942 149V122.818H165.271C167.248 122.818 168.936 123.172 170.334 123.879C171.74 124.578 172.809 125.571 173.542 126.858C174.284 128.136 174.655 129.641 174.655 131.371C174.655 133.109 174.28 134.605 173.53 135.858C172.78 137.102 171.693 138.057 170.27 138.722C168.855 139.386 167.142 139.719 165.131 139.719H158.214V135.27H164.236C165.292 135.27 166.17 135.125 166.869 134.835C167.568 134.545 168.088 134.111 168.429 133.531C168.778 132.952 168.953 132.232 168.953 131.371C168.953 130.501 168.778 129.768 168.429 129.172C168.088 128.575 167.564 128.124 166.856 127.817C166.157 127.501 165.275 127.344 164.21 127.344H160.477V149H154.942ZM169.081 137.085L175.588 149H169.477L163.111 137.085H169.081ZM183.382 122.818V149H177.847V122.818H183.382ZM141.268 181.749V186.07H129.328V181.749H141.268ZM145.291 197V170.818H155.774C157.7 170.818 159.307 171.104 160.594 171.675C161.881 172.246 162.848 173.038 163.496 174.053C164.143 175.058 164.467 176.217 164.467 177.53C164.467 178.553 164.263 179.452 163.854 180.227C163.445 180.994 162.882 181.625 162.166 182.119C161.459 182.605 160.649 182.95 159.737 183.155V183.411C160.734 183.453 161.668 183.734 162.537 184.254C163.415 184.774 164.126 185.503 164.672 186.44C165.217 187.369 165.49 188.477 165.49 189.764C165.49 191.153 165.145 192.393 164.455 193.484C163.773 194.567 162.763 195.423 161.425 196.054C160.087 196.685 158.438 197 156.477 197H145.291ZM150.827 192.474H155.339C156.882 192.474 158.007 192.18 158.714 191.592C159.422 190.996 159.776 190.203 159.776 189.214C159.776 188.49 159.601 187.851 159.251 187.297C158.902 186.743 158.403 186.308 157.756 185.993C157.116 185.678 156.354 185.52 155.467 185.52H150.827V192.474ZM150.827 181.774H154.93C155.689 181.774 156.362 181.642 156.95 181.378C157.547 181.105 158.016 180.722 158.357 180.227C158.706 179.733 158.881 179.141 158.881 178.45C158.881 177.504 158.544 176.741 157.871 176.162C157.206 175.582 156.26 175.293 155.033 175.293H150.827V181.774ZM168.372 197V170.818H186.014V175.382H173.907V181.621H185.106V186.185H173.907V192.436H186.065V197H168.372Z" fill="black"/>
</svg>